<svg width="292" height="66" viewBox="0 0 292 66" fill="none" xmlns="http://www.w3.org/2000/svg">
<rect x="2" y="8" width="2" height="2" fill="white" fill-opacity="0.1"/>
<rect x="14" y="8" width="2" height="2" fill="white" fill-opacity="0.15"/>
<rect x="26" y="8" width="2" height="2" fill="white" fill-opacity="0.2"/>
<rect x="38" y="8" width="2" height="2" fill="#80FFCC" fill-opacity="0.5"/>
<rect x="50" y="8" width="2" height="2" fill="white" fill-opacity="0.2"/>
<rect x="64" y="8" width="2" height="2" transform="rotate(90 64 8)" fill="white" fill-opacity="0.15"/>
<rect x="76" y="8" width="2" height="2" transform="rotate(90 76 8)" fill="white" fill-opacity="0.1"/>
<rect x="88" y="8" width="2" height="2" transform="rotate(90 88 8)" fill="white" fill-opacity="0.05"/>
<rect x="98" y="8" width="2" height="2" fill="white" fill-opacity="0.05"/>
<rect x="110" y="8" width="2" height="2" fill="white" fill-opacity="0.1"/>
<rect x="122" y="8" width="2" height="2" fill="white" fill-opacity="0.15"/>
<rect x="134" y="8" width="2" height="2" fill="white" fill-opacity="0.2"/>
<rect x="148" y="8" width="2" height="2" transform="rotate(90 148 8)" fill="white" fill-opacity="0.05"/>
<rect x="160" y="8" width="2" height="2" transform="rotate(90 160 8)" fill="white" fill-opacity="0.05"/>
<rect x="172" y="8" width="2" height="2" transform="rotate(90 172 8)" fill="white" fill-opacity="0.05"/>
<rect x="182" y="8" width="2" height="2" fill="white" fill-opacity="0.05"/>
<rect x="194" y="8" width="2" height="2" fill="#80FFCC" fill-opacity="0.5"/>
<rect x="206" y="8" width="2" height="2" fill="white" fill-opacity="0.1"/>
<rect x="218" y="8" width="2" height="2" fill="white" fill-opacity="0.1"/>
<rect x="230" y="8" width="2" height="2" fill="white" fill-opacity="0.1"/>
<rect x="242" y="8" width="2" height="2" fill="white" fill-opacity="0.1"/>
<rect x="256" y="8" width="2" height="2" transform="rotate(90 256 8)" fill="white" fill-opacity="0.1"/>
<rect x="268" y="8" width="2" height="2" transform="rotate(90 268 8)" fill="white" fill-opacity="0.1"/>
<rect x="280" y="8" width="2" height="2" transform="rotate(90 280 8)" fill="white" fill-opacity="0.05"/>
<rect x="290" y="8" width="2" height="2" fill="white" fill-opacity="0.1"/>
<rect x="2" y="20" width="2" height="2" fill="#80FFCC" fill-opacity="0.5"/>
<rect x="14" y="20" width="2" height="2" fill="white" fill-opacity="0.1"/>
<rect x="26" y="20" width="2" height="2" fill="white" fill-opacity="0.1"/>
<rect x="40" y="20" width="2" height="2" transform="rotate(90 40 20)" fill="white" fill-opacity="0.1"/>
<rect x="52" y="20" width="2" height="2" transform="rotate(90 52 20)" fill="white" fill-opacity="0.1"/>
<rect x="64" y="20" width="2" height="2" transform="rotate(90 64 20)" fill="white" fill-opacity="0.05"/>
<rect x="74" y="20" width="2" height="2" fill="white" fill-opacity="0.05"/>
<rect x="86" y="20" width="2" height="2" fill="white" fill-opacity="0.05"/>
<rect x="98" y="20" width="2" height="2" fill="white" fill-opacity="0.05"/>
<rect x="110" y="20" width="2" height="2" fill="white" fill-opacity="0.05"/>
<rect x="122" y="20" width="2" height="2" fill="white" fill-opacity="0.05"/>
<rect x="134" y="20" width="2" height="2" fill="white" fill-opacity="0.2"/>
<rect x="146" y="20" width="2" height="2" fill="white" fill-opacity="0.2"/>
<rect x="158" y="20" width="2" height="2" fill="white" fill-opacity="0.1"/>
<rect x="170" y="20" width="2" height="2" fill="white" fill-opacity="0.2"/>
<rect x="182" y="20" width="2" height="2" fill="white" fill-opacity="0.2"/>
<rect x="196" y="20" width="2" height="2" transform="rotate(90 196 20)" fill="white" fill-opacity="0.15"/>
<rect x="208" y="20" width="2" height="2" transform="rotate(90 208 20)" fill="#80FFCC" fill-opacity="0.5"/>
<rect x="220" y="20" width="2" height="2" transform="rotate(90 220 20)" fill="white" fill-opacity="0.05"/>
<rect x="230" y="20" width="2" height="2" fill="white" fill-opacity="0.05"/>
<rect x="242" y="20" width="2" height="2" fill="white" fill-opacity="0.1"/>
<rect x="254" y="20" width="2" height="2" fill="white" fill-opacity="0.15"/>
<rect x="266" y="20" width="2" height="2" fill="white" fill-opacity="0.2"/>
<rect x="280" y="20" width="2" height="2" transform="rotate(90 280 20)" fill="white" fill-opacity="0.1"/>
<rect x="292" y="20" width="2" height="2" transform="rotate(90 292 20)" fill="white" fill-opacity="0.05"/>
<rect x="14" y="32" width="2" height="2" fill="white" fill-opacity="0.1"/>
<rect x="26" y="32" width="2" height="2" fill="white" fill-opacity="0.15"/>
<rect x="38" y="32" width="2" height="2" fill="white" fill-opacity="0.2"/>
<rect x="50" y="32" width="2" height="2" fill="white" fill-opacity="0.2"/>
<rect x="62" y="32" width="2" height="2" fill="white" fill-opacity="0.2"/>
<rect x="74" y="32" width="2" height="2" fill="white" fill-opacity="0.15"/>
<rect x="86" y="32" width="2" height="2" fill="white" fill-opacity="0.15"/>
<rect x="110" y="32" width="2" height="2" fill="white" fill-opacity="0.15"/>
<rect x="122" y="32" width="2" height="2" fill="white" fill-opacity="0.15"/>
<rect x="136" y="32" width="2" height="2" transform="rotate(90 136 32)" fill="white" fill-opacity="0.15"/>
<rect x="148" y="32" width="2" height="2" transform="rotate(90 148 32)" fill="white" fill-opacity="0.1"/>
<rect x="160" y="32" width="2" height="2" transform="rotate(90 160 32)" fill="#80FFCC" fill-opacity="0.5"/>
<rect x="170" y="32" width="2" height="2" fill="white" fill-opacity="0.05"/>
<rect x="182" y="32" width="2" height="2" fill="white" fill-opacity="0.1"/>
<rect x="194" y="32" width="2" height="2" fill="white" fill-opacity="0.1"/>
<rect x="206" y="32" width="2" height="2" fill="white" fill-opacity="0.1"/>
<rect x="218" y="32" width="2" height="2" fill="white" fill-opacity="0.1"/>
<rect x="230" y="32" width="2" height="2" fill="white" fill-opacity="0.1"/>
<rect x="244" y="32" width="2" height="2" transform="rotate(90 244 32)" fill="white" fill-opacity="0.1"/>
<rect x="256" y="32" width="2" height="2" transform="rotate(90 256 32)" fill="white" fill-opacity="0.1"/>
<rect x="266" y="32" width="2" height="2" fill="white" fill-opacity="0.05"/>
<rect x="278" y="32" width="2" height="2" fill="white" fill-opacity="0.05"/>
<rect x="290" y="32" width="2" height="2" fill="white" fill-opacity="0.05"/>
<rect x="38" y="44" width="2" height="2" fill="white" fill-opacity="0.1"/>
<rect x="50" y="44" width="2" height="2" fill="white" fill-opacity="0.15"/>
<rect x="62" y="44" width="2" height="2" fill="white" fill-opacity="0.2"/>
<rect x="74" y="44" width="2" height="2" fill="white" fill-opacity="0.2"/>
<rect x="86" y="44" width="2" height="2" fill="white" fill-opacity="0.2"/>
<rect x="98" y="44" width="2" height="2" fill="white" fill-opacity="0.1"/>
<rect x="110" y="44" width="2" height="2" fill="white" fill-opacity="0.05"/>
<rect x="122" y="44" width="2" height="2" fill="white" fill-opacity="0.1"/>
<rect x="134" y="44" width="2" height="2" fill="white" fill-opacity="0.1"/>
<rect x="148" y="44" width="2" height="2" transform="rotate(90 148 44)" fill="white" fill-opacity="0.15"/>
<rect x="160" y="44" width="2" height="2" transform="rotate(90 160 44)" fill="white" fill-opacity="0.1"/>
<rect x="170" y="44" width="2" height="2" fill="white" fill-opacity="0.2"/>
<rect x="184" y="44" width="2" height="2" transform="rotate(90 184 44)" fill="#80FFCC" fill-opacity="0.5"/>
<rect x="194" y="44" width="2" height="2" fill="white" fill-opacity="0.1"/>
<rect x="208" y="44" width="2" height="2" transform="rotate(90 208 44)" fill="white" fill-opacity="0.1"/>
<rect x="220" y="44" width="2" height="2" transform="rotate(90 220 44)" fill="white" fill-opacity="0.1"/>
<rect x="232" y="44" width="2" height="2" transform="rotate(90 232 44)" fill="white" fill-opacity="0.1"/>
<rect x="244" y="44" width="2" height="2" transform="rotate(90 244 44)" fill="white" fill-opacity="0.05"/>
<rect x="290" y="44" width="2" height="2" fill="white" fill-opacity="0.2"/>
<rect x="134" y="56" width="2" height="2" fill="#80FFCC" fill-opacity="0.5"/>
<rect x="148" y="56" width="2" height="2" transform="rotate(90 148 56)" fill="white" fill-opacity="0.05"/>
<rect x="158" y="56" width="2" height="2" fill="white" fill-opacity="0.2"/>
<rect x="170" y="56" width="2" height="2" fill="white" fill-opacity="0.1"/>
<rect x="182" y="56" width="2" height="2" fill="white" fill-opacity="0.2"/>
<rect x="196" y="56" width="2" height="2" transform="rotate(90 196 56)" fill="white" fill-opacity="0.15"/>
<rect x="208" y="56" width="2" height="2" transform="rotate(90 208 56)" fill="white" fill-opacity="0.1"/>
<rect x="220" y="56" width="2" height="2" transform="rotate(90 220 56)" fill="white" fill-opacity="0.05"/>
<rect x="230" y="56" width="2" height="2" fill="white" fill-opacity="0.05"/>
<rect x="242" y="56" width="2" height="2" fill="white" fill-opacity="0.1"/>
<rect x="254" y="56" width="2" height="2" fill="white" fill-opacity="0.15"/>
<rect x="266" y="56" width="2" height="2" fill="white" fill-opacity="0.2"/>
<rect x="278" y="56" width="2" height="2" fill="white" fill-opacity="0.2"/>
<rect x="290" y="56" width="2" height="2" fill="white" fill-opacity="0.2"/>
</svg>
