<svg width="1428" height="20" viewBox="0 0 1428 20" fill="none" xmlns="http://www.w3.org/2000/svg">
<g style="mix-blend-mode:plus-lighter" filter="url(#filter0_f_677_5408)">
<path d="M211.196 10.6275C211.196 11.1472 436.104 11.5686 713.541 11.5686C990.979 11.5686 1215.89 11.1472 1215.89 10.6275C1215.89 10.1077 990.979 9.68628 713.541 9.68628C436.104 9.68628 211.196 10.1077 211.196 10.6275Z" fill="url(#paint0_linear_677_5408)"/>
<path d="M60.7217 6.94118C60.7217 7.41766 352.999 7.80392 713.541 7.80392C1074.08 7.80392 1366.36 7.41766 1366.36 6.94118C1366.36 6.4647 1074.08 6.07843 713.541 6.07843C352.999 6.07843 60.7217 6.4647 60.7217 6.94118Z" fill="url(#paint1_linear_677_5408)"/>
<path d="M2 3.09804C2 3.70447 320.773 4.19608 714 4.19608C1107.23 4.19608 1426 3.70447 1426 3.09804C1426 2.49161 1107.23 2 714 2C320.773 2 2 2.49161 2 3.09804Z" fill="url(#paint2_linear_677_5408)"/>
<path d="M262.577 14.2353C262.577 14.6685 464.481 15.0196 713.541 15.0196C962.602 15.0196 1164.51 14.6685 1164.51 14.2353C1164.51 13.8021 962.602 13.451 713.541 13.451C464.481 13.451 262.577 13.8021 262.577 14.2353Z" fill="url(#paint3_linear_677_5408)"/>
<path d="M353.412 17.3726C353.412 17.7191 514.648 18 713.541 18C912.435 18 1073.67 17.7191 1073.67 17.3726C1073.67 17.026 912.435 16.7451 713.541 16.7451C514.648 16.7451 353.412 17.026 353.412 17.3726Z" fill="url(#paint4_linear_677_5408)"/>
</g>
<g style="mix-blend-mode:plus-lighter" filter="url(#filter1_f_677_5408)">
<path d="M211.196 10.6275C211.196 11.1472 436.104 11.5686 713.541 11.5686C990.979 11.5686 1215.89 11.1472 1215.89 10.6275C1215.89 10.1077 990.979 9.68628 713.541 9.68628C436.104 9.68628 211.196 10.1077 211.196 10.6275Z" fill="url(#paint5_linear_677_5408)"/>
<path d="M60.7217 6.94118C60.7217 7.41766 352.999 7.80392 713.541 7.80392C1074.08 7.80392 1366.36 7.41766 1366.36 6.94118C1366.36 6.4647 1074.08 6.07843 713.541 6.07843C352.999 6.07843 60.7217 6.4647 60.7217 6.94118Z" fill="url(#paint6_linear_677_5408)"/>
<path d="M2 3.09804C2 3.70447 320.773 4.19608 714 4.19608C1107.23 4.19608 1426 3.70447 1426 3.09804C1426 2.49161 1107.23 2 714 2C320.773 2 2 2.49161 2 3.09804Z" fill="url(#paint7_linear_677_5408)"/>
<path d="M262.577 14.2353C262.577 14.6685 464.481 15.0196 713.541 15.0196C962.602 15.0196 1164.51 14.6685 1164.51 14.2353C1164.51 13.8021 962.602 13.451 713.541 13.451C464.481 13.451 262.577 13.8021 262.577 14.2353Z" fill="url(#paint8_linear_677_5408)"/>
<path d="M353.412 17.3726C353.412 17.7191 514.648 18 713.541 18C912.435 18 1073.67 17.7191 1073.67 17.3726C1073.67 17.026 912.435 16.7451 713.541 16.7451C514.648 16.7451 353.412 17.026 353.412 17.3726Z" fill="url(#paint9_linear_677_5408)"/>
</g>
<g style="mix-blend-mode:plus-lighter" filter="url(#filter2_f_677_5408)">
<path d="M211.196 10.7102C211.196 11.235 436.104 11.6604 713.541 11.6604C990.979 11.6604 1215.89 11.235 1215.89 10.7102C1215.89 10.1854 990.979 9.75997 713.541 9.75997C436.104 9.75997 211.196 10.1854 211.196 10.7102Z" fill="url(#paint10_linear_677_5408)" fill-opacity="0.9"/>
<path d="M60.7217 6.98856C60.7217 7.4696 352.999 7.85957 713.541 7.85957C1074.08 7.85957 1366.36 7.4696 1366.36 6.98856C1366.36 6.50751 1074.08 6.11754 713.541 6.11754C352.999 6.11754 60.7217 6.50751 60.7217 6.98856Z" fill="url(#paint11_linear_677_5408)" fill-opacity="0.9"/>
<path d="M2 3.10857C2 3.72081 320.773 4.21714 714 4.21714C1107.23 4.21714 1426 3.72081 1426 3.10857C1426 2.49632 1107.23 2 714 2C320.773 2 2 2.49632 2 3.10857Z" fill="url(#paint12_linear_677_5408)" fill-opacity="0.9"/>
</g>
<defs>
<filter id="filter0_f_677_5408" x="0" y="0" width="1428" height="20" filterUnits="userSpaceOnUse" color-interpolation-filters="sRGB">
<feFlood flood-opacity="0" result="BackgroundImageFix"/>
<feBlend mode="normal" in="SourceGraphic" in2="BackgroundImageFix" result="shape"/>
<feGaussianBlur stdDeviation="1" result="effect1_foregroundBlur_677_5408"/>
</filter>
<filter id="filter1_f_677_5408" x="0" y="0" width="1428" height="20" filterUnits="userSpaceOnUse" color-interpolation-filters="sRGB">
<feFlood flood-opacity="0" result="BackgroundImageFix"/>
<feBlend mode="normal" in="SourceGraphic" in2="BackgroundImageFix" result="shape"/>
<feGaussianBlur stdDeviation="1" result="effect1_foregroundBlur_677_5408"/>
</filter>
<filter id="filter2_f_677_5408" x="0" y="0" width="1428" height="13.6602" filterUnits="userSpaceOnUse" color-interpolation-filters="sRGB">
<feFlood flood-opacity="0" result="BackgroundImageFix"/>
<feBlend mode="normal" in="SourceGraphic" in2="BackgroundImageFix" result="shape"/>
<feGaussianBlur stdDeviation="1" result="effect1_foregroundBlur_677_5408"/>
</filter>
<linearGradient id="paint0_linear_677_5408" x1="858.35" y1="19.3534" x2="859.339" y2="-18.7175" gradientUnits="userSpaceOnUse">
<stop stop-color="#1935BD"/>
<stop offset="0.674093" stop-color="#029B6B"/>
<stop offset="1" stop-color="#00324B"/>
</linearGradient>
<linearGradient id="paint1_linear_677_5408" x1="858.35" y1="19.3534" x2="859.339" y2="-18.7175" gradientUnits="userSpaceOnUse">
<stop stop-color="#1935BD"/>
<stop offset="0.674093" stop-color="#029B6B"/>
<stop offset="1" stop-color="#00324B"/>
</linearGradient>
<linearGradient id="paint2_linear_677_5408" x1="858.35" y1="19.3534" x2="859.339" y2="-18.7175" gradientUnits="userSpaceOnUse">
<stop stop-color="#1935BD"/>
<stop offset="0.674093" stop-color="#029B6B"/>
<stop offset="1" stop-color="#00324B"/>
</linearGradient>
<linearGradient id="paint3_linear_677_5408" x1="858.35" y1="19.3534" x2="859.339" y2="-18.7175" gradientUnits="userSpaceOnUse">
<stop stop-color="#1935BD"/>
<stop offset="0.674093" stop-color="#029B6B"/>
<stop offset="1" stop-color="#00324B"/>
</linearGradient>
<linearGradient id="paint4_linear_677_5408" x1="858.35" y1="19.3534" x2="859.339" y2="-18.7175" gradientUnits="userSpaceOnUse">
<stop stop-color="#1935BD"/>
<stop offset="0.674093" stop-color="#029B6B"/>
<stop offset="1" stop-color="#00324B"/>
</linearGradient>
<linearGradient id="paint5_linear_677_5408" x1="858.35" y1="19.3534" x2="859.339" y2="-18.7175" gradientUnits="userSpaceOnUse">
<stop stop-color="#1935BD"/>
<stop offset="0.674093" stop-color="#029B6B"/>
<stop offset="1" stop-color="#00324B"/>
</linearGradient>
<linearGradient id="paint6_linear_677_5408" x1="858.35" y1="19.3534" x2="859.339" y2="-18.7175" gradientUnits="userSpaceOnUse">
<stop stop-color="#1935BD"/>
<stop offset="0.674093" stop-color="#029B6B"/>
<stop offset="1" stop-color="#00324B"/>
</linearGradient>
<linearGradient id="paint7_linear_677_5408" x1="858.35" y1="19.3534" x2="859.339" y2="-18.7175" gradientUnits="userSpaceOnUse">
<stop stop-color="#1935BD"/>
<stop offset="0.674093" stop-color="#029B6B"/>
<stop offset="1" stop-color="#00324B"/>
</linearGradient>
<linearGradient id="paint8_linear_677_5408" x1="858.35" y1="19.3534" x2="859.339" y2="-18.7175" gradientUnits="userSpaceOnUse">
<stop stop-color="#1935BD"/>
<stop offset="0.674093" stop-color="#029B6B"/>
<stop offset="1" stop-color="#00324B"/>
</linearGradient>
<linearGradient id="paint9_linear_677_5408" x1="858.35" y1="19.3534" x2="859.339" y2="-18.7175" gradientUnits="userSpaceOnUse">
<stop stop-color="#1935BD"/>
<stop offset="0.674093" stop-color="#029B6B"/>
<stop offset="1" stop-color="#00324B"/>
</linearGradient>
<linearGradient id="paint10_linear_677_5408" x1="1359.81" y1="7.78218" x2="1359.26" y2="31.2533" gradientUnits="userSpaceOnUse">
<stop stop-opacity="0"/>
<stop offset="0.646327" stop-color="#C4EBFF"/>
<stop offset="1" stop-opacity="0"/>
</linearGradient>
<linearGradient id="paint11_linear_677_5408" x1="1359.81" y1="7.78218" x2="1359.26" y2="31.2533" gradientUnits="userSpaceOnUse">
<stop stop-opacity="0"/>
<stop offset="0.646327" stop-color="#C4EBFF"/>
<stop offset="1" stop-opacity="0"/>
</linearGradient>
<linearGradient id="paint12_linear_677_5408" x1="1359.81" y1="7.78218" x2="1359.26" y2="31.2533" gradientUnits="userSpaceOnUse">
<stop stop-opacity="0"/>
<stop offset="0.646327" stop-color="#C4EBFF"/>
<stop offset="1" stop-opacity="0"/>
</linearGradient>
</defs>
</svg>
